<svg width="13" height="11" viewBox="0 0 13 11" fill="none" xmlns="http://www.w3.org/2000/svg">
<path d="M4.89941 0.880401C5.08049 0.608266 5.32019 0.386306 5.59844 0.233124C5.87668 0.0799412 6.18536 0 6.49861 0C6.81185 0 7.12053 0.0799412 7.39878 0.233124C7.67702 0.386306 7.91673 0.608266 8.0978 0.880401L12.6367 7.70331C12.8455 8.01558 12.9695 8.38308 12.9951 8.76546C13.0206 9.14784 12.9467 9.53033 12.7815 9.87093C12.6163 10.2115 12.3661 10.4971 12.0584 10.6963C11.7508 10.8954 11.3976 11.0005 11.0375 11L1.95972 11C1.6003 11 1.24781 10.8947 0.940795 10.6958C0.63378 10.4968 0.384071 10.2118 0.218978 9.87189C0.0538854 9.53198 -0.0202314 9.15029 0.00473424 8.76855C0.0296998 8.38682 0.152786 8.01974 0.360531 7.70748L4.89941 0.880401Z" fill="#ED542B"/>
</svg>
