<svg width="13" height="11" viewBox="0 0 13 11" fill="none" xmlns="http://www.w3.org/2000/svg">
<path d="M8.10059 10.1196C7.91951 10.3917 7.67981 10.6137 7.40156 10.7669C7.12332 10.9201 6.81464 11 6.50139 11C6.18815 11 5.87947 10.9201 5.60122 10.7669C5.32298 10.6137 5.08327 10.3917 4.9022 10.1196L0.363317 3.29669C0.15448 2.98441 0.030484 2.61692 0.00493985 2.23454C-0.0206043 1.85215 0.0532912 1.46967 0.218515 1.12907C0.383738 0.788464 0.633903 0.502907 0.941553 0.303733C1.2492 0.104559 1.60244 -0.000529332 1.96251 9.4242e-07L11.0403 1.73602e-06C11.3997 1.60726e-05 11.7522 0.10526 12.0592 0.304225C12.3662 0.50319 12.6159 0.788212 12.781 1.12811C12.9461 1.46802 13.0202 1.84971 12.9953 2.23145C12.9703 2.61318 12.8472 2.98026 12.6395 3.29252L8.10059 10.1196Z" fill="black"/>
</svg>
