<svg width="182" height="100" viewBox="0 0 182 100" fill="none" xmlns="http://www.w3.org/2000/svg">
<path d="M30.026 99.054L24.8 90.6001H10C7.34784 90.6001 4.8043 89.5465 2.92893 87.6711C1.05357 85.7958 0 83.2523 0 80.6001L0 10C0 7.34784 1.05357 4.80432 2.92893 2.92896C4.8043 1.05359 7.34784 0 10 0H172C174.652 0 177.196 1.05359 179.071 2.92896C180.946 4.80432 182 7.34784 182 10V80.6001C182 83.2523 180.946 85.7958 179.071 87.6711C177.196 89.5465 174.652 90.6001 172 90.6001H38.657L33.427 99.051C33.2488 99.3416 32.9988 99.5814 32.7011 99.7473C32.4033 99.9132 32.0678 99.9995 31.727 99.998C31.3863 100 31.0508 99.9141 30.7529 99.7488C30.4549 99.5834 30.2046 99.3441 30.026 99.054Z" fill="#292929"/>
</svg>
