<svg width="23" height="23" viewBox="0 0 23 23" fill="none" xmlns="http://www.w3.org/2000/svg">
<path d="M11.5 22C17.299 22 22 17.299 22 11.5C22 5.70101 17.299 1 11.5 1C5.70101 1 1 5.70101 1 11.5C1 17.299 5.70101 22 11.5 22Z" stroke="#853FFF" stroke-width="2"/>
<path d="M10.156 12.766C10.1 12.3833 10.1233 12.0427 10.226 11.744C10.3287 11.436 10.4687 11.1607 10.646 10.918C10.8327 10.666 11.024 10.4373 11.22 10.232C11.416 10.0173 11.5793 9.812 11.71 9.616C11.85 9.41067 11.92 9.20533 11.92 9C11.92 8.71067 11.8313 8.49133 11.654 8.342C11.486 8.19267 11.262 8.118 10.982 8.118C10.7207 8.118 10.4873 8.17867 10.282 8.3C10.086 8.42133 9.89467 8.57533 9.708 8.762L8.574 7.726C8.90067 7.34333 9.29267 7.03533 9.75 6.802C10.2073 6.56867 10.7067 6.452 11.248 6.452C11.752 6.452 12.2 6.536 12.592 6.704C12.9933 6.872 13.3107 7.13333 13.544 7.488C13.7773 7.84267 13.894 8.29533 13.894 8.846C13.894 9.19133 13.824 9.49933 13.684 9.77C13.544 10.0313 13.3713 10.274 13.166 10.498C12.9607 10.722 12.76 10.946 12.564 11.17C12.368 11.3847 12.2093 11.6227 12.088 11.884C11.9667 12.136 11.9247 12.43 11.962 12.766H10.156ZM11.052 16.168C10.6973 16.168 10.4033 16.0467 10.17 15.804C9.93667 15.552 9.82 15.244 9.82 14.88C9.82 14.5067 9.93667 14.1987 10.17 13.956C10.4033 13.704 10.6973 13.578 11.052 13.578C11.4067 13.578 11.7007 13.704 11.934 13.956C12.1767 14.1987 12.298 14.5067 12.298 14.88C12.298 15.244 12.1767 15.552 11.934 15.804C11.7007 16.0467 11.4067 16.168 11.052 16.168Z" fill="#853FFF"/>
</svg>
